<?xml version="1.0" standalone="no"?>
<!DOCTYPE svg PUBLIC "-//W3C//DTD SVG 20010904//EN"
 "http://www.w3.org/TR/2001/REC-SVG-20010904/DTD/svg10.dtd">
<svg version="1.0" xmlns="http://www.w3.org/2000/svg"
 width="500.000000pt" height="500.000000pt" viewBox="0 0 500.000000 500.000000"
 preserveAspectRatio="xMidYMid meet">
<metadata>
Created by potrace 1.16, written by Peter Selinger 2001-2019
</metadata>
<g transform="translate(0.000000,500.000000) scale(0.100000,-0.100000)"
fill="#000000" stroke="none">
<path d="M2763 3838 c-204 -370 -588 -1066 -852 -1546 -265 -480 -485 -880
-488 -887 -4 -13 27 -15 219 -15 l224 0 46 82 c25 46 408 742 853 1547 444
806 809 1471 812 1478 4 10 -38 13 -219 13 l-225 0 -370 -672z"/>
<path d="M2481 1946 c-51 -17 -104 -64 -134 -121 -18 -33 -22 -56 -22 -140 0
-93 2 -104 31 -155 87 -155 317 -160 394 -10 27 53 25 60 -14 60 -28 0 -35 -5
-40 -25 -9 -36 -69 -77 -120 -82 -58 -7 -127 25 -156 72 -56 91 -48 224 17
296 76 83 212 70 257 -25 14 -30 22 -36 48 -36 28 0 30 2 23 28 -28 111 -163
177 -284 138z"/>
</g>
</svg>
